<svg width="800" height="600" xmlns="http://www.w3.org/2000/svg">
  <rect width="800" height="600" fill="#F8F7F4" />
  
  <g stroke="rgba(74, 51, 105, 0.15)" stroke-width="1.5">
    <line x1="50" y1="50" x2="300" y2="150" />
    <line x1="300" y1="150" x2="600" y2="80" />
    <line x1="300" y1="150" x2="450" y2="400" />
    <line x1="600" y1="80" x2="700" y2="250" />
    <line x1="450" y1="400" x2="700" y2="250" />
    <line x1="450" y1="400" x2="200" y2="500" />
    <line x1="50" y1="50" x2="100" y2="300" />
    <line x1="100" y1="300" x2="200" y2="500" />
    <line x1="100" y1="300" x2="300" y2="150" />
  </g>

  <g fill="#4A3369" fill-opacity="0.2">
    <circle cx="50" cy="50" r="15" />
    <circle cx="300" cy="150" r="25" />
    <circle cx="600" cy="80" r="18" />
    <circle cx="450" cy="400" r="22" />
    <circle cx="700" cy="250" r="12" />
    <circle cx="200" cy="500" r="20" />
    <circle cx="100" cy="300" r="16" />
  </g>
  
  <g fill="#4A3369">
    <circle cx="50" cy="50" r="6" />
    <circle cx="300" cy="150" r="10" />
    <circle cx="600" cy="80" r="7" />
    <circle cx="450" cy="400" r="9" />
    <circle cx="700" cy="250" r="5" />
    <circle cx="200" cy="500" r="8" />
    <circle cx="100" cy="300" r="6" />
  </g>
</svg>
